<?xml version="1.0" encoding="UTF-8"?>
		<svg xmlns="http://www.w3.org/2000/svg" viewBox="0 0 1000 2000">
    <g id="Grit-Parts">
    <path transform="scale(0.7274688380293767 0.9601556951947101) rotate(214.58367092934444 586.2560247642849 512.7878518834574) translate(586.2560247642849,512.7878518834574)" d="M3,9 L5,7.085 L7,5.17 L6,2.489 L5,0 L4.8,3.447 L4.6,6.894 L2.2,5.553 L0,4.213 L1.6,6.511 Z" fill="rgba(255,255,255,0.7598453241251644)"></path><path transform="scale(1.6990358839793331 1.0419164048112977) rotate(342.07693816354936 754.2963964498648 1262.4806482503748) translate(754.2963964498648,1262.4806482503748)" d="M3.238,4 C3.619,4 4,3 4,2 L4,0 L1.905,0 L0,0 L1.143,2 C1.714,3 2.667,4 3.238,4 Z" fill="rgba(255,255,255,0.48711308307503387)"></path><path transform="scale(0.6331610159627526 1.6005130166029176) rotate(241.39387720991556 26.884824506788306 877.9509162489321) translate(26.884824506788306,877.9509162489321)" d="M4,6 L2.8,3.077 C1.4,-0.429 0,-1.014 0,1.713 C0,2.882 0.8,4.246 2,4.831 L4,6 Z" fill="rgba(255,255,255,0.2581018767138601)"></path><path transform="scale(1.3002540288634332 1.9453495017483808) rotate(314.88767475757084 326.46066694026945 477.7284084344653) translate(326.46066694026945,477.7284084344653)" d="M1,2 C1.6,2 2,1.6 2,1 C2,0.4 1.6,0 1,0 C0.4,0 0,0.4 0,1 C0,1.6 0.4,2 1,2 Z" fill="rgba(255,255,255,0.7719346428098854)"></path><path transform="scale(1.4822427818054842 1.7623614986168374) rotate(146.57453000873815 248.46994816189195 732.3679101845855) translate(248.46994816189195,732.3679101845855)" d="M2.5,3 L3.846,1.615 L5,0 L2.5,0 L0,0 L1.154,1.615 Z" fill="rgba(255,255,255,0.24264475722703316)"></path><path transform="scale(1.8655036359850765 0.6174153049270018) rotate(44.79327189915567 247.06275362358699 56.60868260204977) translate(247.06275362358699,56.60868260204977)" d="M10,5.949 L10,3.077 L10,0 L8.2,0 C7.4,0 6.6,1.026 6.6,2.256 L6.6,4.513 L3.4,3.282 L0,2.051 L2.4,4.923 L4.8,8 L7.4,6.974 L10,5.949 Z" fill="rgba(255,255,255,0.3697189925628328)"></path><path transform="scale(1.950075851970171 0.7686982441918845) rotate(351.4538442661643 742.4599021498766 1287.5934284950533) translate(742.4599021498766,1287.5934284950533)" d="M3.238,4 C3.619,4 4,3 4,2 L4,0 L1.905,0 L0,0 L1.143,2 C1.714,3 2.667,4 3.238,4 Z" fill="rgba(255,255,255,0.2595937728344686)"></path><path transform="scale(0.6831974157029514 1.2467772778358919) rotate(22.760042862126035 438.14789483223217 711.3274124643416) translate(438.14789483223217,711.3274124643416)" d="M1,2 C1.6,2 2,1.6 2,1 C2,0.4 1.6,0 1,0 C0.4,0 0,0.4 0,1 C0,1.6 0.4,2 1,2 Z" fill="rgba(255,255,255,0.12802686243998762)"></path><path transform="scale(1.0174054267933417 1.142105553572406) rotate(96.37753955877474 212.52122464861588 1378.0154342638982) translate(212.52122464861588,1378.0154342638982)" d="M2.857,4 C4.381,4 6.286,3 6.857,2 L8,0 L5.143,0 C3.619,0 1.714,0.8 1.143,2 L0,4 L2.857,4 Z" fill="rgba(255,255,255,0.4535639376353755)"></path><path transform="scale(1.1437320626427785 1.296590127547954) rotate(286.6702995000281 974.7632361941818 82.77953328096288) translate(974.7632361941818,82.77953328096288)" d="M2.857,4 C4.381,4 6.286,3 6.857,2 L8,0 L5.143,0 C3.619,0 1.714,0.8 1.143,2 L0,4 L2.857,4 Z" fill="rgba(255,255,255,0.7994072601580424)"></path><path transform="scale(1.1075726222266358 0.8089547210673883) rotate(220.50160553237322 423.4463595574729 661.6070162739169) translate(423.4463595574729,661.6070162739169)" d="M4,6 L2.8,3.077 C1.4,-0.429 0,-1.014 0,1.713 C0,2.882 0.8,4.246 2,4.831 L4,6 Z" fill="rgba(255,255,255,0.39241937839422314)"></path><path transform="scale(1.033610289955655 1.4807569189394032) rotate(121.52104845135798 586.1211253866916 1539.658598057505) translate(586.1211253866916,1539.658598057505)" d="M2.391,3.48892289 C3.913,2.62492289 5,1.54592289 5,0.89792289 C5,-0.82807711 3.043,0.03492289 1.522,2.62492289 L0,4.99992289 L2.391,3.48892289 Z" fill="rgba(255,255,255,0.7372245473780132)"></path><path transform="scale(1.350299575360981 0.9091032268154471) rotate(134.95303103691313 710.1434915234366 1543.1708814278804) translate(710.1434915234366,1543.1708814278804)" d="M0,5 L1.615,3.846 L3,2.5 L1.615,1.154 L0,0 L0,2.5 Z" fill="rgba(255,255,255,0.42980673994221297)"></path><path transform="scale(1.752461818623259 1.3580402517477) rotate(68.58131503849886 329.10970337361636 1304.6263723908012) translate(329.10970337361636,1304.6263723908012)" d="M2.5,3 L3.846,1.615 L5,0 L2.5,0 L0,0 L1.154,1.615 Z" fill="rgba(255,255,255,0.9890312373236461)"></path><path transform="scale(0.5032074362499478 1.7863841969384326) rotate(237.94401652714717 269.1756699633181 101.49662675438931) translate(269.1756699633181,101.49662675438931)" d="M2.5,3 L3.846,1.615 L5,0 L2.5,0 L0,0 L1.154,1.615 Z" fill="rgba(255,255,255,0.9142104168185188)"></path><path transform="scale(1.9129434905672893 1.465047252539093) rotate(122.05256995326785 453.20165798277844 402.25855768150564) translate(453.20165798277844,402.25855768150564)" d="M10,5.949 L10,3.077 L10,0 L8.2,0 C7.4,0 6.6,1.026 6.6,2.256 L6.6,4.513 L3.4,3.282 L0,2.051 L2.4,4.923 L4.8,8 L7.4,6.974 L10,5.949 Z" fill="rgba(255,255,255,0.9415513691324577)"></path><path transform="scale(1.658715343912324 1.9703103043136907) rotate(246.57240905332762 44.66772327432622 131.3586036812402) translate(44.66772327432622,131.3586036812402)" d="M2.391,3.48892289 C3.913,2.62492289 5,1.54592289 5,0.89792289 C5,-0.82807711 3.043,0.03492289 1.522,2.62492289 L0,4.99992289 L2.391,3.48892289 Z" fill="rgba(255,255,255,0.5141531803874506)"></path><path transform="scale(0.6304202979824988 1.6219903402906781) rotate(227.09577222115539 25.19605417736681 831.4753738135132) translate(25.19605417736681,831.4753738135132)" d="M3.238,4 C3.619,4 4,3 4,2 L4,0 L1.905,0 L0,0 L1.143,2 C1.714,3 2.667,4 3.238,4 Z" fill="rgba(255,255,255,0.7583874133763775)"></path><path transform="scale(1.8592419559606688 1.5823554537194324) rotate(87.75640208851881 154.14848881633603 423.5701145519504) translate(154.14848881633603,423.5701145519504)" d="M3.238,4 C3.619,4 4,3 4,2 L4,0 L1.905,0 L0,0 L1.143,2 C1.714,3 2.667,4 3.238,4 Z" fill="rgba(255,255,255,0.01787829649635797)"></path><path transform="scale(1.2958229055037949 0.5696559251546905) rotate(305.0082921135258 390.3229650658224 1303.9268866149398) translate(390.3229650658224,1303.9268866149398)" d="M4,6 L2.8,3.077 C1.4,-0.429 0,-1.014 0,1.713 C0,2.882 0.8,4.246 2,4.831 L4,6 Z" fill="rgba(255,255,255,0.7795925748521282)"></path><path transform="scale(1.3774515589304133 0.9392366393225818) rotate(3.254393499668664 870.5169580206558 1095.6672629965522) translate(870.5169580206558,1095.6672629965522)" d="M10,5.949 L10,3.077 L10,0 L8.2,0 C7.4,0 6.6,1.026 6.6,2.256 L6.6,4.513 L3.4,3.282 L0,2.051 L2.4,4.923 L4.8,8 L7.4,6.974 L10,5.949 Z" fill="rgba(255,255,255,0.20367154843707524)"></path><path transform="scale(1.245088117741488 0.988593042080801) rotate(197.35134424690474 771.6102600333002 951.7613728265882) translate(771.6102600333002,951.7613728265882)" d="M3.238,4 C3.619,4 4,3 4,2 L4,0 L1.905,0 L0,0 L1.143,2 C1.714,3 2.667,4 3.238,4 Z" fill="rgba(255,255,255,0.8934045035273732)"></path><path transform="scale(1.7068083868640653 1.9634806602270287) rotate(241.55861198135847 366.60980983883195 442.16001216005907) translate(366.60980983883195,442.16001216005907)" d="M3,9 L5,7.085 L7,5.17 L6,2.489 L5,0 L4.8,3.447 L4.6,6.894 L2.2,5.553 L0,4.213 L1.6,6.511 Z" fill="rgba(255,255,255,0.08709269722817492)"></path><path transform="scale(1.085587891115694 1.8809225128483167) rotate(224.36447066028273 372.0530922592411 1786.220950859105) translate(372.0530922592411,1786.220950859105)" d="M3,9 L5,7.085 L7,5.17 L6,2.489 L5,0 L4.8,3.447 L4.6,6.894 L2.2,5.553 L0,4.213 L1.6,6.511 Z" fill="rgba(255,255,255,0.8553229559095699)"></path><path transform="scale(1.7518300055873546 1.1519384851018555) rotate(320.81041017569845 879.4311896147941 1938.9733708387191) translate(879.4311896147941,1938.9733708387191)" d="M1,2 C1.6,2 2,1.6 2,1 C2,0.4 1.6,0 1,0 C0.4,0 0,0.4 0,1 C0,1.6 0.4,2 1,2 Z" fill="rgba(255,255,255,0.6535563815749845)"></path><path transform="scale(1.5373610457499887 1.2805293677886498) rotate(309.812947138318 428.6644178926129 1354.225016798647) translate(428.6644178926129,1354.225016798647)" d="M2.391,3.48892289 C3.913,2.62492289 5,1.54592289 5,0.89792289 C5,-0.82807711 3.043,0.03492289 1.522,2.62492289 L0,4.99992289 L2.391,3.48892289 Z" fill="rgba(255,255,255,0.6158632193112463)"></path><path transform="scale(0.8348375428307273 1.7190705715324335) rotate(50.241757018468995 169.08369581264472 280.51604798951814) translate(169.08369581264472,280.51604798951814)" d="M3,9 L5,7.085 L7,5.17 L6,2.489 L5,0 L4.8,3.447 L4.6,6.894 L2.2,5.553 L0,4.213 L1.6,6.511 Z" fill="rgba(255,255,255,0.7087868627466427)"></path><path transform="scale(1.402391818686994 1.7353252995676742) rotate(90.95014714302982 782.0465332554564 1030.459402715063) translate(782.0465332554564,1030.459402715063)" d="M4,6 L2.8,3.077 C1.4,-0.429 0,-1.014 0,1.713 C0,2.882 0.8,4.246 2,4.831 L4,6 Z" fill="rgba(255,255,255,0.04593692724418741)"></path><path transform="scale(1.7774866705711998 1.5581997594633785) rotate(342.19693921595086 43.28568821208534 1157.1654275021474) translate(43.28568821208534,1157.1654275021474)" d="M2.5,3 L3.846,1.615 L5,0 L2.5,0 L0,0 L1.154,1.615 Z" fill="rgba(255,255,255,0.6876315873691665)"></path><path transform="scale(1.6467117713034711 1.2367055355139227) rotate(137.8019803670535 548.6057599182033 572.5852150483779) translate(548.6057599182033,572.5852150483779)" d="M2.5,3 L3.846,1.615 L5,0 L2.5,0 L0,0 L1.154,1.615 Z" fill="rgba(255,255,255,0.5228869198528909)"></path><path transform="scale(0.517533943468047 1.4843092824611497) rotate(168.73570164536187 217.39544741695016 1735.1099070096616) translate(217.39544741695016,1735.1099070096616)" d="M3.238,4 C3.619,4 4,3 4,2 L4,0 L1.905,0 L0,0 L1.143,2 C1.714,3 2.667,4 3.238,4 Z" fill="rgba(255,255,255,0.19939428506197254)"></path><path transform="scale(0.6976230105792476 0.6800132374425096) rotate(106.58448269755706 101.39692604705641 1517.4064419877088) translate(101.39692604705641,1517.4064419877088)" d="M3.238,4 C3.619,4 4,3 4,2 L4,0 L1.905,0 L0,0 L1.143,2 C1.714,3 2.667,4 3.238,4 Z" fill="rgba(255,255,255,0.7892741421835965)"></path><path transform="scale(0.9452460677669904 1.229559677755932) rotate(78.48190796029479 413.0189718273833 700.6685678846117) translate(413.0189718273833,700.6685678846117)" d="M4,6 L2.8,3.077 C1.4,-0.429 0,-1.014 0,1.713 C0,2.882 0.8,4.246 2,4.831 L4,6 Z" fill="rgba(255,255,255,0.014257034189547158)"></path><path transform="scale(1.6992450166747317 0.546528433664155) rotate(232.87253806051424 881.1802256690129 180.35172405844514) translate(881.1802256690129,180.35172405844514)" d="M2.391,3.48892289 C3.913,2.62492289 5,1.54592289 5,0.89792289 C5,-0.82807711 3.043,0.03492289 1.522,2.62492289 L0,4.99992289 L2.391,3.48892289 Z" fill="rgba(255,255,255,0.7606623443873914)"></path><path transform="scale(0.5836851526136024 1.7755878648197259) rotate(15.002383139524547 946.7583214853952 1430.6918455002617) translate(946.7583214853952,1430.6918455002617)" d="M2.391,3.48892289 C3.913,2.62492289 5,1.54592289 5,0.89792289 C5,-0.82807711 3.043,0.03492289 1.522,2.62492289 L0,4.99992289 L2.391,3.48892289 Z" fill="rgba(255,255,255,0.9397052046570717)"></path><path transform="scale(1.0136591580274272 1.610927021044494) rotate(82.8373063476466 129.16930918311297 513.5051163209954) translate(129.16930918311297,513.5051163209954)" d="M1,2 C1.6,2 2,1.6 2,1 C2,0.4 1.6,0 1,0 C0.4,0 0,0.4 0,1 C0,1.6 0.4,2 1,2 Z" fill="rgba(255,255,255,0.9362158559370637)"></path><path transform="scale(0.8326735599346382 1.4188237340903205) rotate(309.1089892135268 222.1929820195534 782.5578929651554) translate(222.1929820195534,782.5578929651554)" d="M2.857,4 C4.381,4 6.286,3 6.857,2 L8,0 L5.143,0 C3.619,0 1.714,0.8 1.143,2 L0,4 L2.857,4 Z" fill="rgba(255,255,255,0.08180797019617159)"></path><path transform="scale(1.8479776214826895 1.5573789805405251) rotate(138.9406667356873 314.4815513143244 1092.5826576171378) translate(314.4815513143244,1092.5826576171378)" d="M2.391,3.48892289 C3.913,2.62492289 5,1.54592289 5,0.89792289 C5,-0.82807711 3.043,0.03492289 1.522,2.62492289 L0,4.99992289 L2.391,3.48892289 Z" fill="rgba(255,255,255,0.9326470880907758)"></path><path transform="scale(1.248066560101329 0.6383013131013457) rotate(290.31520769698363 485.41328942283667 815.9413290757777) translate(485.41328942283667,815.9413290757777)" d="M2.5,3 L3.846,1.615 L5,0 L2.5,0 L0,0 L1.154,1.615 Z" fill="rgba(255,255,255,0.7799001467508404)"></path><path transform="scale(1.1143535786294714 1.6943383106261507) rotate(269.4962215784792 4.692950972966958 649.6104204053945) translate(4.692950972966958,649.6104204053945)" d="M2.391,3.48892289 C3.913,2.62492289 5,1.54592289 5,0.89792289 C5,-0.82807711 3.043,0.03492289 1.522,2.62492289 L0,4.99992289 L2.391,3.48892289 Z" fill="rgba(255,255,255,0.2123132742847147)"></path><path transform="scale(1.471328053146185 1.7984048652460718) rotate(168.69477057661726 725.9794262833585 400.7989734483117) translate(725.9794262833585,400.7989734483117)" d="M2.857,4 C4.381,4 6.286,3 6.857,2 L8,0 L5.143,0 C3.619,0 1.714,0.8 1.143,2 L0,4 L2.857,4 Z" fill="rgba(255,255,255,0.4529464387795903)"></path><path transform="scale(0.6901482894031372 1.4227575835785822) rotate(17.72685643605925 739.142636069021 1652.378347984195) translate(739.142636069021,1652.378347984195)" d="M4,6 L2.8,3.077 C1.4,-0.429 0,-1.014 0,1.713 C0,2.882 0.8,4.246 2,4.831 L4,6 Z" fill="rgba(255,255,255,0.6705292510561511)"></path><path transform="scale(0.8372568721098956 1.1959660802299759) rotate(354.97743271806047 236.83693730718437 284.82310795437417) translate(236.83693730718437,284.82310795437417)" d="M3,9 L5,7.085 L7,5.17 L6,2.489 L5,0 L4.8,3.447 L4.6,6.894 L2.2,5.553 L0,4.213 L1.6,6.511 Z" fill="rgba(255,255,255,0.5385056479177093)"></path><path transform="scale(1.5158475753981286 1.6815054635324533) rotate(87.35990617493474 855.5245316465414 127.68656248237508) translate(855.5245316465414,127.68656248237508)" d="M4,6 L2.8,3.077 C1.4,-0.429 0,-1.014 0,1.713 C0,2.882 0.8,4.246 2,4.831 L4,6 Z" fill="rgba(255,255,255,0.310891612107177)"></path><path transform="scale(1.008296978228985 0.7651003281528067) rotate(175.41687093331518 919.6345844513347 52.26150368765525) translate(919.6345844513347,52.26150368765525)" d="M1,2 C1.6,2 2,1.6 2,1 C2,0.4 1.6,0 1,0 C0.4,0 0,0.4 0,1 C0,1.6 0.4,2 1,2 Z" fill="rgba(255,255,255,0.5869502905372928)"></path><path transform="scale(0.8134951618986036 0.7518097701500486) rotate(319.11128957271654 391.20328404188376 642.898947165127) translate(391.20328404188376,642.898947165127)" d="M2.5,3 L3.846,1.615 L5,0 L2.5,0 L0,0 L1.154,1.615 Z" fill="rgba(255,255,255,0.7498591933961123)"></path><path transform="scale(1.4243048761229593 0.6308709219210842) rotate(330.26942451922315 685.1739406505379 1422.2187163323053) translate(685.1739406505379,1422.2187163323053)" d="M4,6 L2.8,3.077 C1.4,-0.429 0,-1.014 0,1.713 C0,2.882 0.8,4.246 2,4.831 L4,6 Z" fill="rgba(255,255,255,0.9814942634021846)"></path><path transform="scale(1.8129213429762296 1.0813378885947986) rotate(129.04188454342088 167.94876819424266 1194.9883189829186) translate(167.94876819424266,1194.9883189829186)" d="M2.391,3.48892289 C3.913,2.62492289 5,1.54592289 5,0.89792289 C5,-0.82807711 3.043,0.03492289 1.522,2.62492289 L0,4.99992289 L2.391,3.48892289 Z" fill="rgba(255,255,255,0.4087357985812048)"></path><path transform="scale(0.8632710173732171 0.9654596122296016) rotate(213.1022741868589 345.554992780569 1280.7356298276225) translate(345.554992780569,1280.7356298276225)" d="M3,9 L5,7.085 L7,5.17 L6,2.489 L5,0 L4.8,3.447 L4.6,6.894 L2.2,5.553 L0,4.213 L1.6,6.511 Z" fill="rgba(255,255,255,0.5945359231267471)"></path><path transform="scale(1.5016815413419153 0.9915558512338619) rotate(220.30512130853924 946.0770677109989 823.9393266538846) translate(946.0770677109989,823.9393266538846)" d="M3.238,4 C3.619,4 4,3 4,2 L4,0 L1.905,0 L0,0 L1.143,2 C1.714,3 2.667,4 3.238,4 Z" fill="rgba(255,255,255,0.6450731110008792)"></path>
</g>
		</svg>
	